/* XPM */
static char*mini[]={
"16 16 5 1",
"# c #000000",
". c None",
"a c #0000ff",
"c c #585858",
"b c #ff0000",
"................",
".#############..",
".##aa##bb#bbb#c.",
".#aaa#b#b#b#b#cc",
".#aa##bb##bbb#cc",
".#############cc",
".##aa##b###aa#cc",
".#aaa#bbb#a#a#cc",
".#aa###b##aa##cc",
".#############cc",
".#bbb##aa#aaa#cc",
".#b#b#a#a#a#a#cc",
".#bbb#aa##aaa#cc",
".#############cc",
"..cccccccccccccc",
"...ccccccccccccc"};
